<svg width="80" height="80" viewBox="0 0 80 80" xmlns="http://www.w3.org/2000/svg">
  <!-- Mago Frente -->
  <!-- Corpo -->
  <rect x="25" y="35" width="30" height="35" fill="#8b5cf6" stroke="#6b21a8" stroke-width="2"/>
  
  <!-- Cabeça -->
  <circle cx="40" cy="20" r="12" fill="#fbbf24" stroke="#92400e" stroke-width="1"/>
  
  <!-- Chapéu do Mago -->
  <path d="M28 15 Q40 5 52 15 L45 10 Q40 2 35 10 Z" fill="#1e1b4b" stroke="#312e81" stroke-width="1"/>
  <circle cx="45" cy="8" r="2" fill="#fbbf24"/>
  
  <!-- Varinha -->
  <rect x="60" y="20" width="2" height="20" fill="#92400e"/>
  <circle cx="61" cy="18" r="3" fill="#f59e0b"/>
  <path d="M58 16 L64 16 L61 20 Z" fill="#ef4444"/>
  
  <!-- Livro -->
  <rect x="15" y="28" width="8" height="12" fill="#7c2d12" stroke="#451a03" stroke-width="1"/>
  <rect x="16" y="30" width="6" height="1" fill="#fbbf24"/>
  
  <!-- Pernas -->
  <rect x="30" y="65" width="8" height="12" fill="#6b21a8"/>
  <rect x="42" y="65" width="8" height="12" fill="#6b21a8"/>
  
  <!-- Barba -->
  <path d="M33 22 Q40 28 47 22 Q43 25 40 26 Q37 25 33 22" fill="#9ca3af"/>
  
  <!-- Olhos -->
  <circle cx="36" cy="18" r="1" fill="#000"/>
  <circle cx="44" cy="18" r="1" fill="#000"/>
</svg>
